<svg width="73" height="73" viewBox="0 0 73 73" fill="none" xmlns="http://www.w3.org/2000/svg">
<rect width="73" height="73" rx="36.5" fill="url(#paint0_linear_309_298)"/>
<g filter="url(#filter0_d_309_298)">
<path d="M47.773 42.4792C47.773 42.4355 47.8022 42.3917 47.8022 42.3334V28.4792C47.8022 26.2626 46.0084 24.4688 43.7917 24.4688H38.0605L40.1167 22.7626C40.5834 22.3688 40.6417 21.6834 40.2626 21.2167C39.8688 20.7501 39.1834 20.6917 38.7167 21.0709L34.3417 24.7167C34.0938 24.9209 33.948 25.2272 33.948 25.5626C33.948 25.898 34.0938 26.1897 34.3417 26.4084L38.7167 30.0542C38.9209 30.2292 39.1688 30.3022 39.4167 30.3022C39.723 30.3022 40.0438 30.1709 40.2626 29.9084C40.6563 29.4417 40.5834 28.7563 40.1167 28.3626L38.0605 26.6563H43.7917C44.798 26.6563 45.6147 27.473 45.6147 28.4792V42.3334C45.6147 42.3917 45.6438 42.4355 45.6438 42.4792C43.748 42.9605 42.3334 44.6667 42.3334 46.7084C42.3334 49.1292 44.2876 51.0834 46.7084 51.0834C49.1292 51.0834 51.0834 49.1292 51.0834 46.7084C51.0834 44.6667 49.6688 42.9605 47.773 42.4792Z" fill="white"/>
<path d="M38.6584 46.5917L34.2834 42.9459C33.8167 42.5522 33.1313 42.6251 32.7376 43.0917C32.3438 43.5584 32.4167 44.2438 32.8834 44.6376L34.9397 46.3438H29.2084C28.2022 46.3438 27.3855 45.5272 27.3855 44.5209V30.6667C27.3855 30.6084 27.3563 30.5647 27.3563 30.5209C29.2522 30.0397 30.6667 28.3334 30.6667 26.2917C30.6667 23.8709 28.7126 21.9167 26.2917 21.9167C23.8709 21.9167 21.9167 23.8709 21.9167 26.2917C21.9167 28.3334 23.3313 30.0397 25.2272 30.5209C25.2272 30.5647 25.198 30.6084 25.198 30.6667V44.5209C25.198 46.7376 26.9917 48.5313 29.2084 48.5313H34.9397L32.8834 50.2376C32.4167 50.6313 32.3584 51.3167 32.7376 51.7834C32.9563 52.0459 33.2626 52.1772 33.5834 52.1772C33.8313 52.1772 34.0792 52.0897 34.2834 51.9292L38.6584 48.2834C38.9063 48.0792 39.0522 47.773 39.0522 47.4376C39.0522 47.1022 38.9063 46.8105 38.6584 46.5917Z" fill="white"/>
</g>
<defs>
<filter id="filter0_d_309_298" x="15" y="19" width="43" height="43" filterUnits="userSpaceOnUse" color-interpolation-filters="sRGB">
<feFlood flood-opacity="0" result="BackgroundImageFix"/>
<feColorMatrix in="SourceAlpha" type="matrix" values="0 0 0 0 0 0 0 0 0 0 0 0 0 0 0 0 0 0 127 0" result="hardAlpha"/>
<feOffset dy="4"/>
<feGaussianBlur stdDeviation="2"/>
<feComposite in2="hardAlpha" operator="out"/>
<feColorMatrix type="matrix" values="0 0 0 0 0 0 0 0 0 0 0 0 0 0 0 0 0 0 0.1 0"/>
<feBlend mode="normal" in2="BackgroundImageFix" result="effect1_dropShadow_309_298"/>
<feBlend mode="normal" in="SourceGraphic" in2="effect1_dropShadow_309_298" result="shape"/>
</filter>
<linearGradient id="paint0_linear_309_298" x1="70.3129" y1="73" x2="2.68711" y2="-2.23444e-06" gradientUnits="userSpaceOnUse">
<stop stop-color="#0FA9D5"/>
<stop offset="1" stop-color="#27F19F"/>
</linearGradient>
</defs>
</svg>
