<svg width="27" height="20" viewBox="0 0 27 20" fill="none" xmlns="http://www.w3.org/2000/svg">
<path d="M22.8566 1.63129C21.1358 0.876238 19.2904 0.319947 17.3609 0.00133653C17.3257 -0.00481256 17.2906 0.0105544 17.2725 0.0412889C17.0352 0.444929 16.7723 0.971511 16.5882 1.3854C14.513 1.08831 12.4483 1.08831 10.4156 1.3854C10.2315 0.962311 9.95905 0.444929 9.72065 0.0412889C9.70255 0.0115798 9.66744 -0.0037871 9.63231 0.00133653C7.7039 0.318929 5.85851 0.87522 4.13655 1.63129C4.12164 1.63744 4.10887 1.64769 4.10039 1.661C0.600066 6.66151 -0.358819 11.5391 0.111578 16.3562C0.113706 16.3798 0.127541 16.4023 0.146698 16.4167C2.45611 18.0384 4.69317 19.023 6.88869 19.6755C6.92383 19.6858 6.96106 19.6735 6.98342 19.6458C7.50277 18.9677 7.96572 18.2526 8.36266 17.5006C8.38609 17.4565 8.36372 17.4043 8.31585 17.3869C7.58152 17.1205 6.8823 16.7957 6.2097 16.4269C6.15649 16.3972 6.15224 16.3245 6.20118 16.2896C6.34272 16.1882 6.4843 16.0827 6.61945 15.9761C6.6439 15.9567 6.67797 15.9526 6.70672 15.9649C11.1254 17.894 15.9092 17.894 20.2758 15.9649C20.3046 15.9515 20.3386 15.9557 20.3642 15.9751C20.4994 16.0817 20.6409 16.1882 20.7835 16.2896C20.8324 16.3245 20.8292 16.3972 20.776 16.4269C20.1034 16.8029 19.4042 17.1205 18.6688 17.3858C18.6209 17.4033 18.5997 17.4565 18.6231 17.5006C19.0285 18.2515 19.4915 18.9666 20.0013 19.6448C20.0226 19.6735 20.0608 19.6858 20.096 19.6755C22.3022 19.023 24.5392 18.0384 26.8486 16.4167C26.8688 16.4023 26.8816 16.3808 26.8837 16.3573C27.4467 10.7881 25.9408 5.95053 22.8917 1.66202C22.8843 1.64769 22.8715 1.63744 22.8566 1.63129ZM9.02253 13.4231C7.69219 13.4231 6.59602 12.2552 6.59602 10.8209C6.59602 9.38664 7.67093 8.21875 9.02253 8.21875C10.3847 8.21875 11.4703 9.39689 11.449 10.8209C11.449 12.2552 10.3741 13.4231 9.02253 13.4231ZM17.9941 13.4231C16.6638 13.4231 15.5676 12.2552 15.5676 10.8209C15.5676 9.38664 16.6425 8.21875 17.9941 8.21875C19.3563 8.21875 20.4419 9.39689 20.4206 10.8209C20.4206 12.2552 19.3563 13.4231 17.9941 13.4231Z" fill="white"/>
</svg>
